# xmcd
#
# Track frame offsets:
#	150
#	26005
#	41602
#	64822
#	92137
#	113876
#	139992
#	164840
#	183601
#	210613
#	235022
#	258040
#	278780
#	305400
#	329060
#
# Disc length: 4670 seconds
#
# Revision: 0
# Processed by: cddbd v1.5.2PL0 Copyright (c) Steve Scherf et al.
# Submitted via: EasyCDDAExtractor 11.6.0.1
#
DISCID=e1123c0f
DTITLE=Various Artist - Dancefloor Remix Volume 2 [CD2)
DYEAR=2008
DGENRE=Club
TTITLE0=K.Mash and Laurent Konrad Pres. Discobitch - C'est Beau La Bourgeoiserie
TTITLE0=(Club Mix)
TTITLE1=Katy Perry - I Kissed A Girl (Jason Nevins Funkrokr Edit)
TTITLE2=David Tavare Feat. 2 Eivissa - Hot Summer Night (Oh La La La) (Extende
TTITLE2=d)
TTITLE3=David Vendetta Feat. David Goncalvez - Freaky Girl (Original Mix)
TTITLE4=Phil Green Vs Shokk - Fascination (Club Mix)
TTITLE5=Sharam Feat. Daniel Bedingfield - The One (David Guetta and Joachim Garr
TTITLE5=aud Remix)
TTITLE6=John Dahlback - Hustle Up (Paul Thomas Remix)
TTITLE7=Art Meson - Breack In (Extended Mix French)
TTITLE8=Laurent Konrad - Where My Love Is (Vocal Extended)
TTITLE9=Tristan Garner Feat. Craig Smart - Freedom (Orignal Extended Edit)
TTITLE10=Sven-K and Muttonheads - Etheral Sunshine (Original Mix)
TTITLE11=Jeff Mann - Under The Sun (Version Club)
TTITLE12=Norman Doray - Krystal (Original Mix)
TTITLE13=Sandy Vee - Bleep (Style Of Eye Remix)
TTITLE14=Robbie Rivera - Aye Aye Aye (Rivera and Civilles Club Mix)
EXTD=
EXTT0=
EXTT1=
EXTT2=
EXTT3=
EXTT4=
EXTT5=
EXTT6=
EXTT7=
EXTT8=
EXTT9=
EXTT10=
EXTT11=
EXTT12=
EXTT13=
EXTT14=
PLAYORDER=
